<svg width="500" height="310" viewBox="0 0 500 310" fill="none" xmlns="http://www.w3.org/2000/svg">
<path fill-rule="evenodd" clip-rule="evenodd" d="M79.7058 22.1714C79.7058 9.94348 89.5561 0.0307702 101.707 0.0307691L141.742 0.0307656C153.893 0.0307645 163.743 9.94347 163.743 22.1714C163.743 34.3994 153.893 44.3121 141.742 44.3121L101.707 44.3121C89.5561 44.3121 79.7058 34.3994 79.7058 22.1714Z" fill="#FF9A88"/>
<path fill-rule="evenodd" clip-rule="evenodd" d="M0 199.297C1.06228e-06 187.069 9.85037 177.156 22.0014 177.156H59.2467C71.3977 177.156 81.2481 187.069 81.2481 199.297C81.2481 211.525 71.3977 221.437 59.2467 221.437H22.0014C9.85036 221.437 -1.06228e-06 211.525 0 199.297Z" fill="#FF9A88"/>
<path fill-rule="evenodd" clip-rule="evenodd" d="M410.072 0H235.422L235.416 0.0307664L204.375 0.0307691C192.224 0.0307702 182.374 9.94348 182.374 22.1714C182.374 34.3994 192.224 44.3121 204.375 44.3121L226.123 44.3121L227.027 44.3121C239.178 44.3121 249.028 54.2248 249.028 66.4528C249.028 78.6733 239.19 88.5814 227.049 88.5934L227.027 88.5934H216.831H70.6666C58.5156 88.5934 48.6652 98.5062 48.6652 110.734C48.6652 122.962 58.5156 132.875 70.6666 132.875H207.538H208.697C220.848 132.875 230.698 142.787 230.698 155.015C230.698 167.23 220.869 177.135 208.736 177.156L208.697 177.156L198.246 177.156L117.924 177.156C105.773 177.156 95.9225 187.069 95.9225 199.297C95.9225 211.525 105.773 221.437 117.924 221.437L188.953 221.437H190.812C202.963 221.437 212.813 231.35 212.813 243.578C212.813 255.806 202.963 265.719 190.812 265.719H189.594H179.661H101.707C89.5561 265.719 79.7058 275.631 79.7058 287.859C79.7058 300.087 89.5561 310 101.707 310H170.368H189.594H274.702L293.358 219.503H318.71C325.406 219.503 330.349 220.787 333.538 223.354C336.727 225.6 338.959 229.612 340.235 235.388L357.455 310H451.209L432.554 228.649C430.96 221.589 429.365 216.134 427.771 212.283C426.176 208.111 423.785 204.581 420.596 201.693C439.729 193.349 456.152 181.315 469.865 165.59C483.577 149.545 492.665 131.092 497.13 110.233C499.043 99.9638 500 90.4969 500 81.8323C500 57.1222 492.347 37.3862 477.04 22.6242C461.733 7.54142 439.41 0 410.072 0ZM355.542 150.186H308.186L325.406 69.3168H375.632C387.112 69.3168 395.244 71.5632 400.027 76.0559C404.811 80.2278 407.202 86.4855 407.202 94.8292C407.202 97.0756 407.043 99.4824 406.724 102.05C406.405 104.617 405.927 107.345 405.289 110.233C399.549 136.869 382.966 150.186 355.542 150.186Z" fill="#FF9A88"/>
</svg>
