<svg width="386" height="500" viewBox="0 0 386 500" fill="none" xmlns="http://www.w3.org/2000/svg">
<path fill-rule="evenodd" clip-rule="evenodd" d="M185.607 0.11699C161.484 2.20233 141.588 10.489 123.842 25.8424C99.4274 46.9653 86.0281 78.7945 87.8692 111.293C88.7343 126.562 92.3725 140.186 99.1395 153.493C104.378 163.795 109.989 171.476 118.638 180.182C129.266 190.881 140.663 198.438 154.305 203.833C178.857 213.542 206.679 213.542 231.231 203.833C244.884 198.435 256.285 190.872 266.892 180.182C273.483 173.539 277.365 168.724 281.628 161.905C290.359 147.943 295.4 133.37 297.345 116.476C297.869 111.923 297.864 99.2417 297.335 94.5289C295.207 75.5391 288.429 57.9033 277.598 43.1799C260.552 20.0073 235.835 5.09757 207.628 0.971852C202.82 0.268462 189.731 -0.239562 185.607 0.11699ZM181.31 221.041C145.292 224.241 114.439 237.354 84.8028 262.058C78.6638 267.175 65.1052 280.844 59.6881 287.376C41.3107 309.54 27.0627 334.726 16.8433 363.112C6.21969 392.622 0.319222 425.38 0.0259708 456.478C-0.0452831 464.007 -0.0241576 464.258 0.812629 465.904C10.6346 485.212 93.8868 500 192.768 500C271.651 500 343.051 490.475 371.977 476.093C379.911 472.149 383.946 468.612 385.245 464.462C385.823 462.615 385.838 461.669 385.449 452.005C385.217 446.253 384.791 438.875 384.502 435.61C377.863 360.605 343.786 294.203 291.772 254.918C270.748 239.04 245.648 227.772 221.413 223.332C211.448 221.506 207.058 221.124 194.738 221.008C188.239 220.948 182.197 220.962 181.31 221.041Z" fill="#3143C1"/>
</svg>
