<svg width="157" height="203" viewBox="0 0 157 203" fill="none" xmlns="http://www.w3.org/2000/svg">
<path fill-rule="evenodd" clip-rule="evenodd" d="M75.3387 0.594099C65.601 1.43587 57.5698 4.78086 50.4065 10.9784C40.5515 19.5048 35.1427 32.353 35.8859 45.4711C36.2351 51.6346 37.7037 57.134 40.4353 62.5058C42.5497 66.6641 44.8148 69.7647 48.3059 73.2789C52.5961 77.5977 57.1965 80.6481 62.7035 82.8259C72.614 86.7452 83.8446 86.7452 93.7552 82.8259C99.2661 80.6467 103.868 77.5942 108.15 73.2789C110.81 70.5973 112.378 68.6537 114.099 65.9012C117.623 60.2652 119.658 54.3827 120.443 47.5635C120.654 45.7255 120.652 40.6067 120.439 38.7043C119.58 31.0389 116.843 23.92 112.471 17.9768C105.591 8.62299 95.6138 2.60455 84.2275 0.939171C82.2867 0.655242 77.0033 0.450174 75.3387 0.594099ZM73.6043 89.7719C59.0651 91.0638 46.6112 96.3569 34.6481 106.329C32.1701 108.394 26.697 113.912 24.5104 116.549C17.0922 125.495 11.3409 135.662 7.21571 147.12C2.92738 159.032 0.545605 172.255 0.427231 184.808C0.398469 187.847 0.406997 187.949 0.744773 188.613C4.70949 196.407 38.315 202.376 78.2293 202.376C110.071 202.376 138.892 198.531 150.569 192.726C153.771 191.134 155.4 189.706 155.924 188.031C156.157 187.286 156.164 186.904 156.006 183.003C155.913 180.681 155.741 177.703 155.624 176.385C152.944 146.108 139.189 119.304 118.193 103.447C109.707 97.0376 99.5747 92.489 89.7921 90.6968C85.7695 89.9599 83.9976 89.8056 79.0243 89.7589C76.401 89.7343 73.962 89.7401 73.6043 89.7719Z" fill="#646464"/>
</svg>
