<svg width="109" height="109" viewBox="0 0 109 109" fill="none" xmlns="http://www.w3.org/2000/svg">
<path fill-rule="evenodd" clip-rule="evenodd" d="M51.3653 0.0654589C51.1029 0.0901301 50.1303 0.175866 49.204 0.256013C39.6889 1.0793 29.8742 4.8773 21.973 10.7936C19.4945 12.6495 18.0277 13.9282 15.791 16.1827C5.28554 26.7718 -0.434014 41.1917 0.0257257 55.9301C0.123453 59.064 0.264387 60.5643 0.729988 63.4269C3.50996 80.5206 14.5916 95.4869 30.2388 103.28C32.9711 104.641 34.4105 105.242 37.1758 106.176C46.353 109.277 56.3217 109.837 65.9764 107.793C75.9931 105.672 85.413 100.553 92.8149 93.2095C95.0693 90.9727 96.348 89.5058 98.2038 87.0273C105.51 77.2688 109.352 65.1572 108.975 53.0677C108.838 48.6904 108.372 45.2409 107.39 41.3311C104.952 31.6276 100.103 23.0826 93.0094 15.9882C89.7134 12.6922 86.2991 10.017 82.5098 7.76179C74.9421 3.25772 67.116 0.779969 58.377 0.121207C56.6258 -0.0107361 52.5213 -0.0434488 51.3653 0.0654589ZM59.3388 9.10575C64.8116 9.74557 69.785 11.1817 74.4681 13.4743C85.5816 18.9152 94.0621 28.6627 97.8861 40.3913C99.4632 45.2286 100.081 49.2017 100.081 54.4989C100.081 59.9986 99.3756 64.2717 97.6203 69.3963C92.5402 84.2284 79.673 95.7016 64.3566 99.0564C60.8863 99.8166 58.5238 100.064 54.6365 100.075C48.9803 100.091 44.7332 99.3952 39.5771 97.6086C26.1319 92.9503 15.5288 82.146 11.1143 68.6064C9.53715 63.7691 8.91889 59.7961 8.91889 54.4989C8.91889 50.8988 9.11448 48.7839 9.7386 45.639C12.4452 31.9982 21.2903 20.2844 33.7144 13.8875C39.2002 11.063 45.0055 9.46042 51.706 8.92079C52.8556 8.82824 58.0396 8.95391 59.3388 9.10575ZM52.7952 18.7686C52.2087 19.035 51.4269 19.834 51.2199 20.3785C51.1433 20.58 51.0927 28.7184 51.0927 40.8483V60.9837L51.3994 61.59C51.9793 62.7363 53.2325 63.3684 54.5007 63.1541C55.1227 63.049 54.711 63.3207 64.5182 56.5445C68.4914 53.7994 74.1224 49.9095 77.0314 47.9002C82.9446 43.8161 83.0056 43.7599 83.0981 42.3065C83.14 41.6486 83.0908 41.34 82.8774 40.9253C82.162 39.5337 80.5736 38.8696 79.2684 39.4164C79.0271 39.5176 75.8243 41.6763 72.151 44.2137C68.4778 46.751 63.579 50.1338 61.265 51.7311C58.9511 53.3284 57.0036 54.6352 56.9375 54.6352C56.8687 54.6352 56.8173 47.3748 56.8173 37.6597C56.8173 21.2234 56.809 20.6684 56.5572 20.1786C55.8214 18.748 54.1881 18.1358 52.7952 18.7686Z" fill="#3143C1"/>
</svg>
