<svg width="500" height="500" viewBox="0 0 500 500" fill="none" xmlns="http://www.w3.org/2000/svg">
<path fill-rule="evenodd" clip-rule="evenodd" d="M235.621 0.30027C234.417 0.413441 229.955 0.806724 225.706 1.17437C182.059 4.9509 137.038 22.3729 100.794 49.512C89.4245 58.0255 82.6958 63.8909 72.4358 74.2326C24.2456 122.807 -1.99089 188.953 0.118008 256.56C0.566297 270.936 1.21278 277.818 3.34857 290.949C16.1007 369.361 66.9337 438.013 138.71 473.762C151.243 480.005 157.846 482.761 170.531 487.047C212.628 501.271 258.356 503.838 302.644 494.462C348.592 484.734 391.803 461.255 425.757 427.567C436.098 417.306 441.963 410.577 450.476 399.208C483.992 354.444 501.613 298.886 499.884 243.43C499.257 223.35 497.121 207.527 492.615 189.592C481.433 145.081 459.19 105.884 426.649 73.3404C411.529 58.2212 395.867 45.9493 378.485 35.6045C343.771 14.9437 307.871 3.57784 267.784 0.555996C259.751 -0.049248 240.923 -0.199306 235.621 0.30027ZM272.197 41.7695C297.301 44.7044 320.115 51.2921 341.597 61.8089C392.576 86.7671 431.477 131.48 449.019 185.281C456.253 207.471 459.089 225.696 459.089 249.995C459.089 275.223 455.851 294.824 447.8 318.332C424.496 386.369 365.473 438.998 295.214 454.387C279.295 457.874 268.458 459.01 250.626 459.059C224.68 459.132 205.198 455.941 181.546 447.746C119.871 426.377 71.2328 376.817 50.9829 314.708C43.7484 292.519 40.9123 274.294 40.9123 249.995C40.9123 233.481 41.8095 223.779 44.6725 209.353C57.0883 146.781 97.6619 93.0477 154.653 63.704C179.818 50.7475 206.447 43.3964 237.184 40.921C242.457 40.4965 266.237 41.073 272.197 41.7695ZM242.18 86.0943C239.49 87.3166 235.903 90.9819 234.953 93.4791C234.602 94.4039 234.37 131.736 234.37 187.378V279.742L235.777 282.523C238.437 287.781 244.186 290.681 250.003 289.698C252.856 289.216 250.968 290.462 295.955 259.379C314.181 246.786 340.011 228.943 353.355 219.726C380.48 200.991 380.759 200.734 381.184 194.067C381.376 191.049 381.15 189.633 380.172 187.731C376.89 181.347 369.603 178.301 363.616 180.809C362.51 181.273 347.818 191.175 330.968 202.815C314.118 214.454 291.647 229.972 281.032 237.298C270.418 244.626 261.484 250.62 261.181 250.62C260.865 250.62 260.63 217.315 260.63 172.751C260.63 97.3551 260.592 94.809 259.437 92.5625C256.061 85.9999 248.569 83.1919 242.18 86.0943Z" fill="#3143C1"/>
</svg>
