<svg width="200" height="200" viewBox="0 0 200 200" fill="none" xmlns="http://www.w3.org/2000/svg">
<path fill-rule="evenodd" clip-rule="evenodd" d="M94.2482 0.120108C93.7668 0.165376 91.9822 0.32269 90.2825 0.469749C72.8236 1.98036 54.815 8.94917 40.3175 19.8048C35.7698 23.2102 33.0783 25.5564 28.9743 29.693C9.69824 49.1226 -0.796356 75.5811 0.0472031 102.624C0.226519 108.374 0.485114 111.127 1.33943 116.38C6.4403 147.744 26.7735 175.205 55.484 189.505C60.4974 192.002 63.1386 193.105 68.2124 194.819C85.0514 200.509 103.343 201.535 121.058 197.785C139.437 193.894 156.721 184.502 170.303 171.027C174.439 166.922 176.785 164.231 180.191 159.683C193.597 141.778 200.645 119.555 199.954 97.3719C199.703 89.3401 198.849 83.0108 197.046 75.8369C192.573 58.0322 183.676 42.3534 170.66 29.3362C164.612 23.2885 158.347 18.3797 151.394 14.2418C137.508 5.97747 123.149 1.43114 107.114 0.222399C103.901 -0.0196992 96.3693 -0.0797226 94.2482 0.120108ZM108.879 16.7078C118.92 17.8818 128.046 20.5168 136.639 24.7235C157.031 34.7068 172.591 52.592 179.608 74.1125C182.501 82.9883 183.636 90.2783 183.636 99.9979C183.636 110.089 182.341 117.93 179.12 127.333C169.798 154.547 146.189 175.599 118.085 181.755C111.718 183.15 107.383 183.604 100.25 183.624C89.8721 183.653 82.0793 182.376 72.6186 179.098C47.9485 170.551 28.4931 150.727 20.3932 125.883C17.4994 117.008 16.3649 109.718 16.3649 99.9979C16.3649 93.3923 16.7238 89.5117 17.869 83.7414C22.8353 58.7123 39.0648 37.2191 61.8614 25.4816C71.9271 20.299 82.579 17.3586 94.8735 16.3684C96.9827 16.1986 106.495 16.4292 108.879 16.7078ZM96.872 34.4377C95.7958 34.9267 94.3613 36.3927 93.9814 37.3917C93.8408 37.7616 93.7481 52.6943 93.7481 74.9511V111.897L94.3108 113.009C95.3749 115.113 97.6742 116.272 100.001 115.879C101.143 115.686 100.387 116.185 118.382 103.751C125.672 98.7144 136.004 91.577 141.342 87.8903C152.192 80.3965 152.304 80.2935 152.474 77.6266C152.55 76.4194 152.46 75.8532 152.069 75.0924C150.756 72.5388 147.841 71.3203 145.447 72.3238C145.004 72.5093 139.127 76.4702 132.387 81.1261C125.647 85.7817 116.659 91.9887 112.413 94.9194C108.167 97.8503 104.594 100.248 104.472 100.248C104.346 100.248 104.252 86.9261 104.252 69.1005C104.252 38.942 104.237 37.9236 103.775 37.025C102.424 34.3999 99.4276 33.2767 96.872 34.4377Z" fill="#646464"/>
</svg>
