<svg width="500" height="500" viewBox="0 0 500 500" fill="none" xmlns="http://www.w3.org/2000/svg">
<g clip-path="url(#clip0_186_216)">
<rect width="500" height="500" fill="white"/>
<path fill-rule="evenodd" clip-rule="evenodd" d="M218.502 1.38309C118.773 13.9254 34.9032 86.6163 8.3032 183.565C1.40137 208.716 -0.0868822 220.818 0.00382145 251.047C0.0694622 272.984 0.544462 280.366 2.60797 291.579C12.0614 342.945 33.9186 386.007 68.9923 422.368C96.0279 450.396 123.735 469.186 158.056 482.768C213.986 504.9 280.097 505.76 335.852 485.077C360.791 475.827 387.313 460.801 407.46 444.511C419.766 434.56 441.138 412.35 450.616 399.663C474.003 368.357 489.941 331.394 497.22 291.579C500.684 272.627 500.966 230.404 497.755 211.256C485.988 141.062 447.087 80.5913 388.412 41.2822C359.644 22.0092 325.174 8.50006 289.307 2.43931C273.108 -0.297806 236.241 -0.847377 218.502 1.38309ZM274.733 19.8407C373.108 30.521 454.481 103.358 475.923 199.925C503.544 324.326 424.595 447.979 299.908 475.601C175.38 503.188 51.5724 424.316 23.9209 299.785C-5.47778 167.38 85.7581 37.8299 220.682 20.3939C235.716 18.4507 259.67 18.2063 274.733 19.8407Z" fill="#3143C1"/>
<path fill-rule="evenodd" clip-rule="evenodd" d="M176.85 133.609C161.428 137.523 146.701 147.986 135.192 163.208C112.448 193.285 110.56 222.982 128.923 261.776C144.368 294.406 167.92 323.81 220.579 376.211L249.922 405.409L279.256 376.211C320.951 334.709 339.444 313.43 356.616 287.198C378.065 254.432 387.077 222.907 381.944 198.594C376.968 175.027 357.116 149.201 335.564 138.256C313.234 126.915 284.008 131.024 256.301 149.4L249.922 153.631L243.543 149.4C234.865 143.645 224.53 138.538 215.272 135.434C205.21 132.058 186.465 131.169 176.85 133.609ZM240.094 170.443C229.791 162.49 216.068 155.364 206.079 152.778C182.711 146.731 162.752 155.872 146.815 179.924C143.269 185.274 139.467 192.335 138.364 195.613C129.012 223.438 142.98 260.063 180.266 305.483C199.693 329.148 246.639 377.412 250.229 377.412C252.392 377.412 295.291 333.821 310.894 315.768C354.826 264.939 371.483 225.372 361.48 195.613C360.378 192.335 356.575 185.274 353.029 179.924C329.874 144.979 296.908 141.767 259.303 170.79C254.779 174.279 250.558 177.136 249.922 177.136C249.286 177.136 244.863 174.124 240.094 170.443Z" fill="#FF9A88"/>
</g>
<defs>
<clipPath id="clip0_186_216">
<rect width="500" height="500" fill="white"/>
</clipPath>
</defs>
</svg>
